<mxfile host="65bd71144e">
    <diagram id="98ABqRQm81sbjuPaNB2x" name="第 1 页">
        <mxGraphModel dx="654" dy="1019" grid="1" gridSize="10" guides="1" tooltips="1" connect="1" arrows="1" fold="1" page="1" pageScale="1" pageWidth="827" pageHeight="1169" math="0" shadow="0">
            <root>
                <mxCell id="0"/>
                <mxCell id="1" parent="0"/>
                <mxCell id="2" value="" style="ellipse;whiteSpace=wrap;html=1;strokeWidth=3;fontColor=#ffffff;fillColor=none;strokeColor=#FF0000;" vertex="1" parent="1">
                    <mxGeometry x="50" y="250" width="710" height="350" as="geometry"/>
                </mxCell>
                <mxCell id="3" value="" style="ellipse;whiteSpace=wrap;html=1;strokeWidth=3;fontColor=#ffffff;fillColor=none;strokeColor=#000000;" vertex="1" parent="1">
                    <mxGeometry x="105.78" y="290" width="604.22" height="282.5" as="geometry"/>
                </mxCell>
                <mxCell id="4" value="" style="ellipse;whiteSpace=wrap;html=1;strokeWidth=3;fontColor=#ffffff;fillColor=none;strokeColor=#000000;" vertex="1" parent="1">
                    <mxGeometry x="130" y="340" width="390" height="190" as="geometry"/>
                </mxCell>
                <mxCell id="5" value="" style="ellipse;whiteSpace=wrap;html=1;strokeWidth=3;fontColor=#ffffff;fillColor=none;strokeColor=#000000;" vertex="1" parent="1">
                    <mxGeometry x="144" y="390" width="246" height="110" as="geometry"/>
                </mxCell>
                <mxCell id="6" value="" style="ellipse;whiteSpace=wrap;html=1;strokeWidth=3;fontColor=#ffffff;fillColor=none;strokeColor=#000000;" vertex="1" parent="1">
                    <mxGeometry x="280" y="360" width="390" height="160" as="geometry"/>
                </mxCell>
                <mxCell id="7" value="Projective" style="text;html=1;strokeColor=none;fillColor=none;align=center;verticalAlign=middle;whiteSpace=wrap;rounded=0;fontColor=#FF0000;fontStyle=3" vertex="1" parent="1">
                    <mxGeometry x="350" y="220" width="110" height="20" as="geometry"/>
                </mxCell>
                <mxCell id="8" value="Affine" style="text;html=1;strokeColor=none;fillColor=none;align=center;verticalAlign=middle;whiteSpace=wrap;rounded=0;fontColor=#000000;fontSize=14;fontStyle=3" vertex="1" parent="1">
                    <mxGeometry x="350" y="260" width="90" height="20" as="geometry"/>
                </mxCell>
                <mxCell id="9" value="Similarity" style="text;html=1;strokeColor=none;fillColor=none;align=center;verticalAlign=middle;whiteSpace=wrap;rounded=0;fontColor=#000000;fontSize=14;fontStyle=3" vertex="1" parent="1">
                    <mxGeometry x="280" y="310" width="90" height="20" as="geometry"/>
                </mxCell>
                <mxCell id="10" value="Linear" style="text;html=1;strokeColor=none;fillColor=none;align=center;verticalAlign=middle;whiteSpace=wrap;rounded=0;fontColor=#000000;fontSize=14;fontStyle=3" vertex="1" parent="1">
                    <mxGeometry x="445" y="330" width="90" height="20" as="geometry"/>
                </mxCell>
                <mxCell id="11" value="Rigid" style="text;html=1;strokeColor=none;fillColor=none;align=center;verticalAlign=middle;whiteSpace=wrap;rounded=0;fontColor=#000000;fontSize=14;fontStyle=3" vertex="1" parent="1">
                    <mxGeometry x="234" y="360" width="90" height="20" as="geometry"/>
                </mxCell>
                <mxCell id="12" value="Translation" style="text;html=1;strokeColor=none;fillColor=none;align=center;verticalAlign=middle;whiteSpace=wrap;rounded=0;fontColor=#000000;fontSize=14;fontStyle=3" vertex="1" parent="1">
                    <mxGeometry x="180" y="435" width="90" height="20" as="geometry"/>
                </mxCell>
                <mxCell id="13" value="Isotropic Scaling" style="text;html=1;strokeColor=none;fillColor=none;align=left;verticalAlign=middle;whiteSpace=wrap;rounded=0;fontColor=#000000;fontSize=14;fontStyle=2" vertex="1" parent="1">
                    <mxGeometry x="400" y="425" width="110" height="20" as="geometry"/>
                </mxCell>
                <mxCell id="15" value="Identity Rotation" style="text;html=1;strokeColor=none;fillColor=none;align=left;verticalAlign=middle;whiteSpace=wrap;rounded=0;fontSize=14;fontColor=#000000;" vertex="1" parent="1">
                    <mxGeometry x="305" y="431" width="40" height="20" as="geometry"/>
                </mxCell>
                <mxCell id="16" value="Scaling&lt;br&gt;Reflection&lt;br&gt;Shear" style="text;html=1;strokeColor=none;fillColor=none;align=left;verticalAlign=middle;whiteSpace=wrap;rounded=0;fontSize=14;fontColor=#000000;" vertex="1" parent="1">
                    <mxGeometry x="550" y="411" width="90" height="59" as="geometry"/>
                </mxCell>
            </root>
        </mxGraphModel>
    </diagram>
</mxfile>